<svg xmlns="http://www.w3.org/2000/svg" viewBox="0 0 804.3 694.19"><defs><linearGradient id="a" x1="294.63" x2="562.55" y1="11.4" y2="613.16" gradientUnits="userSpaceOnUse"><stop offset="0" stop-color="#3eddd7"/><stop offset=".04" stop-color="#47dacf"/><stop offset=".09" stop-color="#62d2bc"/><stop offset=".17" stop-color="#8dc69c"/><stop offset=".26" stop-color="#c8b570"/><stop offset=".33" stop-color="#faa74c"/><stop offset=".62" stop-color="#fc4359"/><stop offset="1" stop-color="#0076b3"/></linearGradient><clipPath id="b"><path fill="none" stroke-width="0" d="M326.56 694.19C146.21 694.19 0 547.98 0 367.63S151.41 38.21 329.79 11.57C413.3-.9 729.29-13.6 785.71 32.89c33.36 27.49-16.15 153.08-83.16 298.21-78.98 171.07-192.75 363.08-375.99 363.08Z"/></clipPath></defs><path fill="url(#a)" d="M326.56 694.19C146.21 694.19 0 547.98 0 367.63S151.41 38.21 329.79 11.57C413.3-.9 729.29-13.6 785.71 32.89c33.36 27.49-16.15 153.08-83.16 298.21-78.98 171.07-192.75 363.08-375.99 363.08Z"/><g fill="#fff" clip-path="url(#b)"><path d="M101.95 256.58c-2.71 28.45-6.38 69.98 14.49 91.87 29.94 30.29 99.09 9.58 135.17-2.21 38.01-12.75 82.89-33.5 119.94-49.16 87.57-37.82 176.33-76.94 263.41-116.05 46.82-21.05 96.04-43.43 142.69-65l13.62-6.29 13.01 26.2-13.29 6.96c-148.07 75.76-300.96 142.33-454.88 205.18-24.58 10.1-49.46 19.96-74.99 27.72-47.42 14.3-127.1 33.4-163.95-10.58-24.86-31.03-15.19-77.89 4.76-108.64Zm76.46 189.85c-2.65 29.26-5.78 71.71 21.22 89.38 48.92 30.72 163.25-20.75 212.96-42.33 88.38-38.28 219.89-93.45 306.52-132.19 6.88-3.15 16.09-7.58 22.74-10.7l14.01 25.3-13.07 7.37-2.71 1.53c-24.83 13.46-50.36 25.44-75.94 37.33-91.76 42.23-185.28 80.98-279.15 118.15-50.23 18.92-124.4 43.73-177.26 28.19-56.53-17.06-57.35-79.17-29.32-122.05Z"/></g></svg>