<?xml version="1.0" encoding="UTF-8"?><svg id="uuid-21771c52-30fc-454e-b63c-daaec3e5c5eb" xmlns="http://www.w3.org/2000/svg" xmlns:xlink="http://www.w3.org/1999/xlink" viewBox="0 0 4644.04 1131.22"><defs><linearGradient id="uuid-df6c1d0f-fe33-4857-8136-61d485c27b17" x1="584.78" y1="565.61" x2="1153.8" y2="565.61" gradientUnits="userSpaceOnUse"><stop offset="0" stop-color="#3eddd7"/><stop offset="1" stop-color="#0076b3"/></linearGradient><linearGradient id="uuid-08154db5-ea72-4dc5-9cbd-7b4ccc5af360" x1="884.41" y1="448.43" x2="1152.33" y2="1050.19" gradientUnits="userSpaceOnUse"><stop offset="0" stop-color="#3eddd7"/><stop offset=".04" stop-color="#47dacf"/><stop offset=".09" stop-color="#62d2bc"/><stop offset=".17" stop-color="#8dc69c"/><stop offset=".26" stop-color="#c8b570"/><stop offset=".33" stop-color="#faa74c"/><stop offset=".62" stop-color="#fc4359"/><stop offset="1" stop-color="#0076b3"/></linearGradient><clipPath id="uuid-7a2775f4-ec9b-4c28-92cb-ee30048ee7e5"><path d="M916.34,1131.22c-180.36,0-326.56-146.21-326.56-326.56s151.41-329.42,329.79-356.06c83.51-12.47,399.5-25.17,455.92,21.32,33.36,27.49-16.15,153.08-83.16,298.21-78.98,171.07-192.75,363.08-375.99,363.08Z" fill="none" stroke-width="0"/></clipPath></defs><g id="uuid-a99e947d-314a-472e-8f8e-8576539e299f"><rect x="45.23" y="353.59" width="538.34" height="403.75" transform="translate(-140.98 108.23) rotate(-16.01)" fill="#f4eedc" stroke-width="0"/><polygon points="517.47 287.19 517.47 287.19 338.85 652.99 0 435.64 0 435.64 328.81 605.68 517.47 287.19" fill="#000" opacity=".1" stroke-width="0"/><line x1="247.27" y1="594.25" x2="111.34" y2="823.74" fill="none" opacity=".08" stroke="#000" stroke-miterlimit="10" stroke-width="3"/><line x1="628.8" y1="675.29" x2="388.61" y2="551.07" fill="none" opacity=".08" stroke="#000" stroke-miterlimit="10" stroke-width="3"/><polyline points="517.47 287.19 328.81 605.68 0 435.64" fill="none" stroke-width="0"/><path d="M1226.09,432.03c-88.52-25.12-185.16-110.13-256.34-191.5C864.28,119.96,790.14,0,625.13,0c-141.76,0-256.68,114.92-256.68,256.68,0,0-105.52,44.07-105.52,163.07,0,0,73.12-50.18,174.91-60.22,0,0,75.2-1.44,121.87,117.57,57.35,146.24-51.61,243.73,45.19,426.03h0c41.77,132.23,165.4,228.09,311.44,228.09,183.25,0,297.01-192.01,375.99-363.08,67.01-145.14,116.52-270.72,83.16-298.21-14.61-12.04-46.64-20.11-87.53-25.24l-61.88-12.65" fill="url(#uuid-df6c1d0f-fe33-4857-8136-61d485c27b17)" stroke-width="0"/><path d="M722.35,536.82c-27.13-230.38-284.01-180.63-284.01-180.63l-.5,3.33s75.21-1.41,121.87,117.57c57.35,146.24-51.61,243.73,45.19,426.03h0c.68,2.15,1.38,4.29,2.11,6.43,43.68-55.12,136.24-195.34,115.34-372.73Z" fill="#000" opacity=".24" stroke-width="0"/><path d="M368.45,256.68c102.37,6.79,69.39,102.85,69.39,102.85-101.79,10.04-174.91,60.22-174.91,60.22,0-119,105.52-163.07,105.52-163.07" fill="#eda83a" stroke-width="0"/><circle cx="595.15" cy="186.04" r="63.15" fill="#15283f" stroke-width="0"/><circle cx="589.78" cy="174.4" r="20.78" fill="#fff" stroke-width="0"/><path d="M368.45,256.68c102.37,6.79,69.39,102.85,69.39,102.85-101.79,10.04-174.91,60.22-174.91,60.22,0-119,105.52-163.07,105.52-163.07C368.45,114.92,483.37,0,625.13,0c165.02,0,239.15,119.96,344.62,240.53,87.31,99.8,207.98,196.96,318.22,204.15" fill="none" stroke-width="0"/><path d="M916.34,1131.22c-180.36,0-326.56-146.21-326.56-326.56s151.41-329.42,329.79-356.06c83.51-12.47,399.5-25.17,455.92,21.32,33.36,27.49-16.15,153.08-83.16,298.21-78.98,171.07-192.75,363.08-375.99,363.08Z" fill="none" stroke-width="0"/><path d="M604.89,903.13c-96.8-182.3,12.16-279.8-45.19-426.03-46.67-119-121.87-117.57-121.87-117.57" fill="none" stroke-width="0"/><path d="M368.45,256.68c102.37,6.79,69.39,102.85,69.39,102.85-101.79,10.04-174.91,60.22-174.91,60.22,0-119,105.52-163.07,105.52-163.07C368.45,114.92,483.37,0,625.13,0c165.02,0,239.15,119.96,344.62,240.53,87.31,99.8,207.98,196.96,318.22,204.15" fill="none" stroke-width="0"/><path d="M604.89,903.13c-96.8-182.3,12.16-279.8-45.19-426.03-46.67-119-121.87-117.57-121.87-117.57" fill="none" stroke-width="0"/><g id="uuid-1bf56603-d95a-47eb-b16a-ff6614f7af3d"><path d="M916.34,1131.22c-180.36,0-326.56-146.21-326.56-326.56s151.41-329.42,329.79-356.06c83.51-12.47,399.5-25.17,455.92,21.32,33.36,27.49-16.15,153.08-83.16,298.21-78.98,171.07-192.75,363.08-375.99,363.08Z" fill="url(#uuid-08154db5-ea72-4dc5-9cbd-7b4ccc5af360)" stroke-width="0"/><g clip-path="url(#uuid-7a2775f4-ec9b-4c28-92cb-ee30048ee7e5)"><path d="M691.73,693.61c-2.71,28.45-6.38,69.98,14.49,91.87,29.94,30.29,99.09,9.58,135.17-2.21,38.01-12.75,82.89-33.5,119.94-49.16,87.57-37.82,176.33-76.94,263.41-116.05,46.82-21.05,96.04-43.43,142.69-65,0,0,13.62-6.29,13.62-6.29,0,0,13.01,26.2,13.01,26.2,0,0-13.29,6.96-13.29,6.96-148.07,75.76-300.96,142.33-454.88,205.18-24.58,10.1-49.46,19.96-74.99,27.72-47.42,14.3-127.1,33.4-163.95-10.58-24.86-31.03-15.19-77.89,4.76-108.64h0Z" fill="#fff" stroke-width="0"/><path d="M768.19,883.46c-2.65,29.26-5.78,71.71,21.22,89.38,48.92,30.72,163.25-20.75,212.96-42.33,88.38-38.28,219.89-93.45,306.52-132.19,6.88-3.15,16.09-7.58,22.74-10.7,0,0,14.01,25.3,14.01,25.3l-13.07,7.37s-2.71,1.53-2.71,1.53c-24.83,13.46-50.36,25.44-75.94,37.33-91.76,42.23-185.28,80.98-279.15,118.15-50.23,18.92-124.4,43.73-177.26,28.19-56.53-17.06-57.35-79.17-29.32-122.05h0Z" fill="#fff" stroke-width="0"/></g></g><path d="M1936.44,999.01c-13.54,0-24.76-4.47-33.67-13.38s-13.38-20.15-13.38-33.67v-420.68c.61-48.58,11.99-92.25,34.13-131,22.14-38.75,52.27-69.33,90.41-91.79,38.13-22.44,81.18-33.67,129.16-33.67s91.94,11.23,130.08,33.67c38.13,22.46,68.41,53.05,90.87,91.79,22.44,38.75,33.67,82.42,33.67,131s-10.31,92.11-30.9,130.54c-20.61,38.44-48.75,68.89-84.41,91.33-35.68,22.46-75.96,33.67-120.85,33.67-36.3,0-69.65-7.52-100.1-22.6-30.44-15.06-56.43-35.52-77.96-61.35v249.08c0,13.52-4.31,24.75-12.92,33.67-8.62,8.91-19.99,13.38-34.13,13.38ZM2143.08,703.8c31.37,0,59.34-7.52,83.95-22.6,24.59-15.06,44.12-35.66,58.58-61.81,14.44-26.13,21.68-55.5,21.68-88.1s-7.24-62.88-21.68-89.03c-14.46-26.13-33.99-46.73-58.58-61.81-24.61-15.06-52.58-22.6-83.95-22.6s-58.58,7.54-83.49,22.6c-24.91,15.08-44.44,35.68-58.58,61.81-14.16,26.15-21.22,55.81-21.22,89.03s7.06,61.97,21.22,88.1c14.14,26.15,33.67,46.75,58.58,61.81,24.91,15.08,52.73,22.6,83.49,22.6Z" fill="#169fc1" stroke-width="0"/><path d="M2511.17,196.4c-16.61,0-30.91-6-42.9-17.99s-17.99-26.29-17.99-42.9,6-30.91,17.99-42.9c11.99-11.99,26.29-17.99,42.9-17.99s30.9,6,42.9,17.99c11.99,11.99,17.99,26.29,17.99,42.9s-6,30.91-17.99,42.9-26.29,17.99-42.9,17.99ZM2511.17,783.14c-13.54,0-24.76-4.45-33.67-13.38-8.92-8.91-13.38-20.14-13.38-33.67v-410.53c0-14.14,4.45-25.51,13.38-34.13,8.91-8.61,20.14-12.92,33.67-12.92s25.51,4.31,34.13,12.92c8.61,8.62,12.92,19.99,12.92,34.13v410.53c0,13.54-4.31,24.76-12.92,33.67-8.62,8.92-19.99,13.38-34.13,13.38Z" fill="#169fc1" stroke-width="0"/><path d="M3100.19,397.98c-21.84-38.43-51.82-68.57-89.95-90.41-38.14-21.82-81.8-32.75-131-32.75s-93.8,10.93-131.92,32.75c-38.14,21.84-68.12,51.98-89.95,90.41-21.84,38.44-32.75,82.88-32.75,133.31s10.15,93.95,30.44,132.38c20.29,38.44,48.12,68.58,83.49,90.41,35.36,21.84,76.11,32.75,122.24,32.75,42.44,0,79.94-10.91,112.55-32.75,28.27-18.93,51.32-44.13,69.19-75.56v45.58c0,39.99-7.38,73.8-22.14,101.48-14.76,27.68-34.6,48.58-59.5,62.73-24.91,14.14-52.12,21.22-81.64,21.22-31.99,0-60.58-5.85-85.8-17.53-25.23-11.69-46.13-27.99-62.73-48.89-7.38-9.84-17.07-16-29.06-18.45-11.99-2.47-23.52,0-34.6,7.38-9.84,6.76-15.84,15.68-17.99,26.75-2.16,11.07.76,21.82,8.76,32.29,26.44,33.21,58.72,58.42,96.87,75.65,38.13,17.21,79.02,25.83,122.7,25.83,50.42,0,94.86-11.69,133.31-35.06,38.43-23.38,68.41-54.89,89.95-94.56,21.52-39.67,32.29-83.79,32.29-132.38v-199.27c0-50.42-10.93-94.86-32.75-133.31ZM2964.12,681.66c-24.61,14.76-52.9,22.14-84.87,22.14s-60.28-7.38-84.87-22.14c-24.61-14.76-43.98-35.06-58.12-60.89-14.16-25.83-21.22-55.65-21.22-89.49s7.06-63.8,21.22-89.95c14.14-26.13,33.51-46.59,58.12-61.35,24.59-14.76,52.89-22.14,84.87-22.14s60.27,7.38,84.87,22.14c24.59,14.76,43.82,35.21,57.66,61.35,13.84,26.15,20.76,56.13,20.76,89.95s-6.92,63.65-20.76,89.49c-13.84,25.83-33.07,46.13-57.66,60.89Z" fill="#169fc1" stroke-width="0"/><path d="M3668.01,552.04c7.99-7.68,11.99-17.37,11.99-29.06,0-48.58-9.08-91.47-27.21-128.69-18.15-37.2-44.44-66.42-78.88-87.64-34.45-21.22-75.65-31.83-123.62-31.83s-91.65,10.93-129.16,32.75c-37.52,21.84-66.88,51.98-88.1,90.41-21.22,38.44-31.83,82.88-31.83,133.31s11.21,93.95,33.67,132.38c22.44,38.44,53.51,68.58,93.18,90.41,39.67,21.84,85.02,32.75,136.07,32.75,28.28,0,57.96-5.22,89.02-15.68,31.05-10.45,57.04-23.99,77.96-40.59,10.45-7.99,15.37-17.53,14.76-28.6-.62-11.07-6.16-21.22-16.61-30.44-8-6.76-17.38-9.99-28.14-9.69-10.77.32-20.76,3.85-29.98,10.61-12.31,9.23-28.45,17.38-48.43,24.45-19.99,7.08-39.53,10.61-58.58,10.61-35.06,0-66.12-7.68-93.18-23.06-27.07-15.37-48.29-36.28-63.66-62.73-10.3-17.71-17.13-37.09-20.53-58.12h350.8c12.3,0,22.44-3.83,30.44-11.53ZM3360.34,377.22c24.91-15.37,54.89-23.06,89.95-23.06,30.75,0,56.88,7.08,78.42,21.22,21.52,14.16,38.13,33.37,49.82,57.66,8.3,17.28,13.8,36.2,16.51,56.74h-307.24c3.16-17.61,8.43-34.06,15.81-49.36,12.92-26.75,31.83-47.81,56.74-63.19Z" fill="#169fc1" stroke-width="0"/><path d="M4176.32,552.04c7.99-7.68,11.99-17.37,11.99-29.06,0-48.58-9.08-91.47-27.21-128.69-18.15-37.2-44.44-66.42-78.88-87.64-34.45-21.22-75.65-31.83-123.62-31.83s-91.65,10.93-129.16,32.75c-37.52,21.84-66.88,51.98-88.1,90.41-21.22,38.44-31.83,82.88-31.83,133.31s11.21,93.95,33.67,132.38c22.44,38.44,53.51,68.58,93.18,90.41,39.67,21.84,85.02,32.75,136.07,32.75,28.28,0,57.96-5.22,89.02-15.68,31.05-10.45,57.04-23.99,77.96-40.59,10.45-7.99,15.37-17.53,14.76-28.6-.62-11.07-6.16-21.22-16.61-30.44-8-6.76-17.38-9.99-28.14-9.69-10.77.32-20.76,3.85-29.98,10.61-12.31,9.23-28.45,17.38-48.43,24.45-19.99,7.08-39.53,10.61-58.58,10.61-35.06,0-66.12-7.68-93.18-23.06-27.07-15.37-48.29-36.28-63.66-62.73-10.3-17.71-17.13-37.09-20.53-58.12h350.8c12.3,0,22.44-3.83,30.44-11.53ZM3868.65,377.22c24.91-15.37,54.89-23.06,89.95-23.06,30.75,0,56.88,7.08,78.42,21.22,21.52,14.16,38.13,33.37,49.82,57.66,8.3,17.28,13.8,36.2,16.51,56.74h-307.24c3.16-17.61,8.43-34.06,15.81-49.36,12.92-26.75,31.83-47.81,56.74-63.19Z" fill="#169fc1" stroke-width="0"/><path d="M4445.69,786.83c-43.06,0-82.88-6.6-119.47-19.83-36.6-13.22-65.04-29.98-85.33-50.28-9.23-9.83-13.07-21.06-11.53-33.67,1.53-12.6,7.52-22.9,17.99-30.9,12.3-9.83,24.45-13.98,36.44-12.46,11.99,1.54,22.29,6.92,30.91,16.14,10.45,11.69,27.21,22.6,50.28,32.75,23.06,10.15,48.74,15.22,77.03,15.22,35.66,0,62.88-5.84,81.64-17.53,18.75-11.68,28.44-26.75,29.06-45.21.61-18.45-8.16-34.44-26.29-47.97-18.15-13.52-51.2-24.59-99.17-33.21-62.13-12.3-107.17-30.75-135.15-55.35-27.99-24.59-41.98-54.73-41.98-90.41,0-31.37,9.23-57.34,27.68-77.95,18.45-20.6,42.12-35.98,71.04-46.13,28.9-10.15,59.04-15.22,90.41-15.22,40.59,0,76.57,6.46,107.94,19.37s56.27,30.76,74.73,53.51c8.61,9.85,12.6,20.15,11.99,30.91-.62,10.77-5.85,19.83-15.68,27.21-9.84,6.78-21.54,8.92-35.06,6.46-13.54-2.45-24.91-7.99-34.13-16.61-15.38-14.76-31.99-24.91-49.82-30.44-17.85-5.54-38.44-8.3-61.81-8.3-27.07,0-49.98,4.61-68.73,13.84-18.77,9.23-28.14,22.76-28.14,40.59,0,11.07,2.91,21.07,8.76,29.98,5.84,8.92,17.37,16.92,34.6,23.99,17.21,7.08,42.44,14,75.65,20.76,46.13,9.23,82.57,20.92,109.32,35.06,26.75,14.16,45.97,30.6,57.66,49.36,11.68,18.77,17.53,40.45,17.53,65.04,0,28.3-7.54,53.82-22.6,76.57-15.08,22.76-37.22,40.91-66.42,54.43-29.22,13.54-65.66,20.3-109.32,20.3Z" fill="#169fc1" stroke-width="0"/></g></svg>